# xmcd
#
# Track frame offsets:
#	150
#	29608
#	65600
#	99642
#	158076
#	183402
#	208990
#	262742
#	300850
#
# Disc length: 4410 seconds
#
# Revision: 1
# Processed by: cddbd v1.5.2PL0 Copyright (c) Steve Scherf et al.
# Submitted via: audiograbber 1.83.01
#
DISCID=74113809
DTITLE=Grateful Dead - 95-05-28 Portland Meadows, Portland OR
DYEAR=1900
DGENRE=
TTITLE0=Jack Straw
TTITLE1=Peggy-O
TTITLE2=Wang Dang Doodle
TTITLE3=Row Jimmy
TTITLE4=When I Paint My Masterpiece
TTITLE5=Brown Eyed Women
TTITLE6=Let It Grow
TTITLE7=Samson and Delilah
TTITLE8=Way To Go Home
EXTD=
EXTT0=
EXTT1=
EXTT2=
EXTT3=
EXTT4=
EXTT5=
EXTT6=
EXTT7=
EXTT8=
PLAYORDER=
